<svg width="42" height="42" viewBox="0 0 42 42" fill="none" xmlns="http://www.w3.org/2000/svg">
<path d="M24.0502 4.71595C25.577 4.48837 27.1401 4.56293 28.6438 4.93997C30.6316 5.43842 32.5143 6.46545 34.0665 8.01763C35.6186 9.56981 36.6458 11.4525 37.1442 13.4405C37.5212 14.9441 37.5958 16.5071 37.3682 18.0339C37.2695 18.6957 36.6531 19.1522 35.9913 19.0536C35.3295 18.9549 34.8729 18.3385 34.9716 17.6767C35.1524 16.4641 35.093 15.2227 34.7939 14.0298C34.3991 12.4555 33.5866 10.9646 32.3531 9.73101C31.1196 8.49748 29.6287 7.68503 28.0544 7.29028C26.8615 6.99115 25.62 6.9318 24.4074 7.11255C23.7456 7.2112 23.1292 6.75467 23.0305 6.09287C22.9319 5.43107 23.3884 4.8146 24.0502 4.71595Z" fill="white"/>
<path d="M24.3497 10.4971C26.1804 10.2241 28.1176 10.7925 29.5301 12.2048C30.9426 13.6173 31.5108 15.5546 31.2379 17.3853C31.1392 18.0471 30.5228 18.5036 29.861 18.4049C29.1992 18.3063 28.7426 17.6898 28.8413 17.028C29.0058 15.9241 28.6633 14.7648 27.8168 13.9183M27.8168 13.9183C26.9702 13.0717 25.8108 12.7291 24.707 12.8936C24.0452 12.9923 23.4287 12.5358 23.3301 11.874C23.2314 11.2122 23.6879 10.5957 24.3497 10.4971" fill="white"/>
<path d="M9.93879 9.52607C8.60938 9.52607 7.78012 10.7173 8.1599 11.8429C9.52161 15.8785 12.0591 21.9495 15.8435 25.7338C19.6277 29.5181 25.6987 32.0557 29.7344 33.4174C30.8599 33.7972 32.0512 32.9679 32.0512 31.6385V27.5407C32.0512 27.394 31.9718 27.2589 31.8437 27.1878L28.2742 25.2032C28.1576 25.1384 28.0166 25.1353 27.8974 25.195L24.0907 27.0982C23.8527 27.2173 23.5821 27.2546 23.3207 27.2045L23.5489 26.0146C23.3207 27.2045 23.3207 27.2045 23.3207 27.2045L23.3172 27.2038L23.3127 27.2029L23.3005 27.2005L23.2639 27.1929C23.2343 27.1865 23.1941 27.1776 23.1443 27.1659C23.0446 27.1423 22.906 27.1071 22.7352 27.0578C22.3941 26.9594 21.9214 26.8036 21.372 26.5695C20.2781 26.1033 18.8501 25.3137 17.5568 24.0205C16.2637 22.7274 15.4719 21.2973 15.0035 20.2018C14.7683 19.6516 14.6114 19.178 14.512 18.8363C14.4623 18.6652 14.4268 18.5264 14.4029 18.4266C14.391 18.3767 14.382 18.3365 14.3756 18.3068L14.3679 18.2703L14.3655 18.2581L14.3646 18.2536L14.3642 18.2518C14.3642 18.2518 14.3639 18.2502 15.5531 18.0189L14.3642 18.2518C14.3132 17.9895 14.35 17.716 14.4695 17.477L16.3731 13.6699C16.4326 13.5508 16.4297 13.4098 16.365 13.2932L14.3891 9.734C14.3178 9.60561 14.1825 9.52607 14.036 9.52607H9.93879ZM16.8382 18.1578L16.8388 18.1599C16.915 18.4221 17.0403 18.8019 17.2316 19.2493C17.6162 20.1491 18.2546 21.2915 19.2702 22.3071M19.2702 22.3071C20.2857 23.3225 21.4254 23.9583 22.322 24.3404C22.7679 24.5304 23.1461 24.6545 23.4071 24.7298L26.8136 23.0278C27.6485 22.6102 28.6358 22.6319 29.4516 23.0854L33.0209 25.0699C33.9181 25.5686 34.4743 26.5144 34.4743 27.5407V31.6385C34.4743 34.4827 31.7888 36.6679 28.9597 35.7133C24.8734 34.3345 18.3368 31.654 14.1301 27.4472C9.92328 23.2404 7.2428 16.7039 5.86399 12.6175C4.90941 9.78846 7.09461 7.103 9.93879 7.103H14.036C15.063 7.103 16.0091 7.66004 16.5075 8.55773L18.4835 12.1172C18.9362 12.9327 18.9576 13.9191 18.5403 14.7535L16.8382 18.1578" fill="white"/>
</svg>
