<svg width="42" height="42" viewBox="0 0 42 42" fill="none" xmlns="http://www.w3.org/2000/svg">
<path fill-rule="evenodd" clip-rule="evenodd" d="M20.2256 2.43964C20.6864 2.10345 21.3117 2.10345 21.7725 2.43964L26.0224 5.53972L31.2828 5.52971C31.8532 5.52862 32.3591 5.89613 32.5343 6.43899L34.1504 11.4451L38.412 14.5289C38.8741 14.8634 39.0673 15.458 38.89 16.0002L37.2549 21L38.89 25.9998C39.0673 26.542 38.8741 27.1366 38.412 27.4711L34.1504 30.5549L32.5343 35.561C32.3591 36.1038 31.8532 36.4713 31.2828 36.4703L26.0224 36.4603L21.7725 39.5604C21.3117 39.8965 20.6864 39.8965 20.2256 39.5604L15.9757 36.4603L10.7153 36.4703C10.1449 36.4713 9.63903 36.1038 9.46378 35.561L7.84774 30.5549L3.58611 27.4711C3.12397 27.1366 2.93076 26.542 3.10807 25.9998L4.74315 21L3.10807 16.0002C2.93076 15.458 3.12397 14.8634 3.58611 14.5289L7.84774 11.4451L9.46378 6.43899C9.63903 5.89613 10.1449 5.52862 10.7153 5.52971L15.9757 5.53972L20.2256 2.43964ZM20.9991 5.12459L17.1759 7.9134C16.9506 8.07775 16.6788 8.16606 16.3999 8.16553L11.6677 8.15652L10.2139 12.6599C10.1283 12.9253 9.96029 13.1565 9.73436 13.32L5.90064 16.0943L7.37154 20.592C7.45822 20.8571 7.45822 21.1429 7.37154 21.408L5.90064 25.9057L9.73436 28.68C9.96029 28.8435 10.1283 29.0747 10.2139 29.34L11.6677 33.8435L16.3999 33.8345C16.6788 33.834 16.9506 33.9223 17.1759 34.0866L20.9991 36.8754L24.8222 34.0866C25.0475 33.9223 25.3193 33.834 25.5982 33.8345L30.3304 33.8435L31.7842 29.34C31.8698 29.0747 32.0378 28.8435 32.2637 28.68L36.0974 25.9057L34.6266 21.408C34.5399 21.1429 34.5399 20.8571 34.6266 20.592L36.0974 16.0943L32.2637 13.32C32.0378 13.1565 31.8698 12.9253 31.7842 12.6599L30.3304 8.15652L25.5982 8.16553C25.3193 8.16606 25.0475 8.07775 24.8222 7.9134L20.9991 5.12459Z" fill="white"/>
<path fill-rule="evenodd" clip-rule="evenodd" d="M28.9273 15.6969C29.4399 16.2095 29.4399 17.0405 28.9273 17.5531L20.1773 26.3031C19.6648 26.8156 18.8338 26.8156 18.3212 26.3031L13.9462 21.9281C13.4336 21.4155 13.4336 20.5845 13.9462 20.0719C14.4588 19.5594 15.2898 19.5594 15.8023 20.0719L19.2493 23.5188L27.0712 15.6969C27.5838 15.1844 28.4148 15.1844 28.9273 15.6969Z" fill="white"/>
</svg>
