<svg width="40" height="40" viewBox="0 0 40 40" fill="none" xmlns="http://www.w3.org/2000/svg">
<path fill-rule="evenodd" clip-rule="evenodd" d="M2.85368 2.17868C3.32077 1.98521 3.85842 2.09215 4.21591 2.44965L37.5493 35.783C37.9067 36.1405 38.0137 36.6781 37.8202 37.1452C37.6267 37.6123 37.1709 37.9169 36.6654 37.9169H3.33203C2.64168 37.9169 2.08203 37.3572 2.08203 36.6669V3.33353C2.08203 2.82795 2.38658 2.37216 2.85368 2.17868ZM4.58203 6.3513V35.4169H33.6476L4.58203 6.3513Z" fill="white"/>
<path fill-rule="evenodd" clip-rule="evenodd" d="M10.3537 18.012C10.8208 17.8185 11.3584 17.9255 11.7159 18.283L21.7159 28.283C22.0734 28.6405 22.1804 29.1781 21.9869 29.6452C21.7934 30.1123 21.3376 30.4169 20.832 30.4169H10.832C10.1417 30.4169 9.58203 29.8572 9.58203 29.1669V19.1669C9.58203 18.6613 9.88658 18.2055 10.3537 18.012ZM12.082 22.1846V27.9169H17.8143L12.082 22.1846Z" fill="white"/>
<path fill-rule="evenodd" clip-rule="evenodd" d="M10.3537 18.012C10.8208 17.8185 11.3584 17.9255 11.7159 18.283L21.7159 28.283C22.0734 28.6405 22.1804 29.1781 21.9869 29.6452C21.7934 30.1123 21.3376 30.4169 20.832 30.4169H10.832C10.1417 30.4169 9.58203 29.8572 9.58203 29.1669V19.1669C9.58203 18.6613 9.88658 18.2055 10.3537 18.012ZM12.082 22.1846V27.9169H17.8143L12.082 22.1846Z" fill="white"/>
<path fill-rule="evenodd" clip-rule="evenodd" d="M10.3537 18.012C10.8208 17.8185 11.3584 17.9255 11.7159 18.283L21.7159 28.283C22.0734 28.6405 22.1804 29.1781 21.9869 29.6452C21.7934 30.1123 21.3376 30.4169 20.832 30.4169H10.832C10.1417 30.4169 9.58203 29.8572 9.58203 29.1669V19.1669C9.58203 18.6613 9.88658 18.2055 10.3537 18.012ZM12.082 22.1846V27.9169H17.8143L12.082 22.1846Z" fill="white"/>
<path fill-rule="evenodd" clip-rule="evenodd" d="M10.3537 18.012C10.8208 17.8185 11.3584 17.9255 11.7159 18.283L21.7159 28.283C22.0734 28.6405 22.1804 29.1781 21.9869 29.6452C21.7934 30.1123 21.3376 30.4169 20.832 30.4169H10.832C10.1417 30.4169 9.58203 29.8572 9.58203 29.1669V19.1669C9.58203 18.6613 9.88658 18.2055 10.3537 18.012ZM12.082 22.1846V27.9169H17.8143L12.082 22.1846Z" fill="white"/>
<path fill-rule="evenodd" clip-rule="evenodd" d="M24.9987 32.9168C25.6891 32.9168 26.2487 33.4765 26.2487 34.1668V36.6668C26.2487 37.3572 25.6891 37.9168 24.9987 37.9168C24.3083 37.9168 23.7487 37.3572 23.7487 36.6668V34.1668C23.7487 33.4765 24.3083 32.9168 24.9987 32.9168Z" fill="white"/>
<path fill-rule="evenodd" clip-rule="evenodd" d="M19.9987 32.9168C20.6891 32.9168 21.2487 33.4765 21.2487 34.1668V36.6668C21.2487 37.3572 20.6891 37.9168 19.9987 37.9168C19.3083 37.9168 18.7487 37.3572 18.7487 36.6668V34.1668C18.7487 33.4765 19.3083 32.9168 19.9987 32.9168Z" fill="white"/>
<path fill-rule="evenodd" clip-rule="evenodd" d="M14.9987 32.9168C15.6891 32.9168 16.2487 33.4765 16.2487 34.1668V36.6668C16.2487 37.3572 15.6891 37.9168 14.9987 37.9168C14.3083 37.9168 13.7487 37.3572 13.7487 36.6668V34.1668C13.7487 33.4765 14.3083 32.9168 14.9987 32.9168Z" fill="white"/>
<path fill-rule="evenodd" clip-rule="evenodd" d="M9.9987 32.9168C10.6891 32.9168 11.2487 33.4765 11.2487 34.1668V36.6668C11.2487 37.3572 10.6891 37.9168 9.9987 37.9168C9.30834 37.9168 8.7487 37.3572 8.7487 36.6668V34.1668C8.7487 33.4765 9.30834 32.9168 9.9987 32.9168Z" fill="white"/>
<path fill-rule="evenodd" clip-rule="evenodd" d="M2.08203 30.0002C2.08203 29.3098 2.64168 28.7502 3.33203 28.7502H5.83203C6.52239 28.7502 7.08203 29.3098 7.08203 30.0002C7.08203 30.6905 6.52239 31.2502 5.83203 31.2502H3.33203C2.64168 31.2502 2.08203 30.6905 2.08203 30.0002Z" fill="white"/>
<path fill-rule="evenodd" clip-rule="evenodd" d="M2.08203 25.0002C2.08203 24.3098 2.64168 23.7502 3.33203 23.7502H5.83203C6.52239 23.7502 7.08203 24.3098 7.08203 25.0002C7.08203 25.6905 6.52239 26.2502 5.83203 26.2502H3.33203C2.64168 26.2502 2.08203 25.6905 2.08203 25.0002Z" fill="white"/>
<path fill-rule="evenodd" clip-rule="evenodd" d="M2.08203 20.0002C2.08203 19.3098 2.64168 18.7502 3.33203 18.7502H5.83203C6.52239 18.7502 7.08203 19.3098 7.08203 20.0002C7.08203 20.6905 6.52239 21.2502 5.83203 21.2502H3.33203C2.64168 21.2502 2.08203 20.6905 2.08203 20.0002Z" fill="white"/>
<path fill-rule="evenodd" clip-rule="evenodd" d="M2.08203 15.0002C2.08203 14.3098 2.64168 13.7502 3.33203 13.7502H5.83203C6.52239 13.7502 7.08203 14.3098 7.08203 15.0002C7.08203 15.6905 6.52239 16.2502 5.83203 16.2502H3.33203C2.64168 16.2502 2.08203 15.6905 2.08203 15.0002Z" fill="white"/>
</svg>
