<svg width="36" height="42" viewBox="0 0 36 42" fill="none" xmlns="http://www.w3.org/2000/svg">
<path d="M17.9982 22.9361C12.6978 22.9361 0.375 22.5497 0.375 18.9671C0.375 17.8205 1.4124 17.1695 2.2944 16.7999C2.3994 10.0379 7.368 4.23772 14.3064 2.67112C14.8314 1.35232 16.272 0.419922 17.9982 0.419922C19.7244 0.419922 21.165 1.35232 21.69 2.66692C28.6242 4.23772 33.597 10.0379 33.702 16.7957C34.584 17.1653 35.6214 17.8163 35.6214 18.9629C35.6214 22.5455 23.2944 22.9361 17.9982 22.9361ZM3.7014 18.9713C5.6796 19.6223 10.4886 20.4077 17.9982 20.4077C25.5078 20.4077 30.3126 19.6223 32.295 18.9713C32.2194 18.9461 32.1354 18.9167 32.043 18.8915L31.0896 18.6017L31.161 17.4971C31.1694 17.3417 31.182 17.1779 31.182 17.0183C31.182 11.1299 26.6586 6.06892 20.4258 4.98952L19.3926 4.81312L19.3758 3.76732C19.3716 3.37672 18.7794 2.94832 17.9982 2.94832C17.217 2.94832 16.6248 3.38092 16.6206 3.76732L16.6038 4.81312L15.5706 4.98952C9.3378 6.06892 4.8144 11.1257 4.8144 17.0183C4.8144 17.1821 4.827 17.3459 4.8354 17.5097L4.9068 18.6017L3.9534 18.8915C3.8694 18.9167 3.7812 18.9461 3.7014 18.9713Z" fill="white"/>
<path d="M30.9848 23.2889C30.3884 22.9319 29.6114 23.1335 29.2586 23.7341C28.9016 24.3347 29.1032 25.1075 29.7038 25.4603C30.3296 25.8299 30.7076 26.4767 30.7076 27.1907C30.7076 28.2533 29.876 29.1269 28.8092 29.1899L27.9818 29.2361L27.7004 30.0131C26.117 34.3685 22.3748 39.0515 17.8808 39.0515C13.3784 39.0515 9.63204 34.3601 8.05704 29.9963L7.80084 29.2781L7.04484 29.1773C6.04944 29.0429 5.29764 28.1861 5.29764 27.1949C5.29764 26.4473 5.72184 25.7627 6.40224 25.4141L6.59964 25.3007C6.62484 25.2881 6.65004 25.2713 6.67524 25.2587L6.80124 25.1873L6.80964 25.1621C7.09524 24.9311 7.28004 24.5741 7.28004 24.1751C7.28004 23.4779 6.71304 22.9067 6.01164 22.9067C5.71764 22.9067 5.45304 23.0033 5.24304 23.1671C3.71844 23.9525 2.77344 25.4939 2.77344 27.1949C2.77344 29.1815 4.08804 30.9161 5.93184 31.5041C7.97724 36.6197 12.3578 41.5799 17.8766 41.5799C23.3618 41.5799 27.734 36.6743 29.8004 31.5881C31.7786 31.0883 33.236 29.2991 33.236 27.1949C33.2318 25.5989 32.375 24.1079 30.9848 23.2889Z" fill="white"/>
</svg>
