<svg width="40" height="40" viewBox="0 0 40 40" fill="none" xmlns="http://www.w3.org/2000/svg">
<path fill-rule="evenodd" clip-rule="evenodd" d="M3.75054 5.00011C3.75057 3.3893 5.05641 2.0835 6.66721 2.0835H33.3337C34.9446 2.0835 36.2504 3.38934 36.2504 5.00016V35.0002C36.2504 36.611 34.9446 37.9168 33.3337 37.9168H6.66667C5.05582 37.9168 3.74997 36.6109 3.75 35.0001L3.75054 5.00011ZM6.66721 4.5835C6.43709 4.5835 6.25055 4.77004 6.25054 5.00015L6.25 35.0002C6.25 35.2302 6.43655 35.4168 6.66667 35.4168H33.3337C33.5639 35.4168 33.7504 35.2303 33.7504 35.0002V5.00016C33.7504 4.77003 33.5639 4.5835 33.3337 4.5835H6.66721Z" fill="white"/>
<path fill-rule="evenodd" clip-rule="evenodd" d="M9.58333 8.3335C9.58333 7.64314 10.143 7.0835 10.8333 7.0835H29.1667C29.857 7.0835 30.4167 7.64314 30.4167 8.3335V15.8335C30.4167 16.5239 29.857 17.0835 29.1667 17.0835H10.8333C10.143 17.0835 9.58333 16.5239 9.58333 15.8335V8.3335ZM12.0833 9.5835V14.5835H27.9167V9.5835H12.0833Z" fill="white"/>
<path fill-rule="evenodd" clip-rule="evenodd" d="M9.11612 22.4496C9.60427 21.9615 10.3957 21.9615 10.8839 22.4496L16.7172 28.2829C17.2054 28.7711 17.2054 29.5626 16.7172 30.0507C16.2291 30.5389 15.4376 30.5389 14.9495 30.0507L9.11612 24.2174C8.62796 23.7292 8.62796 22.9378 9.11612 22.4496Z" fill="white"/>
<path fill-rule="evenodd" clip-rule="evenodd" d="M16.7172 22.4496C17.2054 22.9378 17.2054 23.7292 16.7172 24.2174L10.8839 30.0507C10.3957 30.5389 9.60427 30.5389 9.11612 30.0507C8.62796 29.5626 8.62796 28.7711 9.11612 28.2829L14.9495 22.4496C15.4376 21.9615 16.2291 21.9615 16.7172 22.4496Z" fill="white"/>
<path fill-rule="evenodd" clip-rule="evenodd" d="M22.0833 29.1668C22.0833 28.4765 22.643 27.9168 23.3333 27.9168H30C30.6904 27.9168 31.25 28.4765 31.25 29.1668C31.25 29.8572 30.6904 30.4168 30 30.4168H23.3333C22.643 30.4168 22.0833 29.8572 22.0833 29.1668Z" fill="white"/>
<path fill-rule="evenodd" clip-rule="evenodd" d="M22.0833 24.1668C22.0833 23.4765 22.643 22.9168 23.3333 22.9168H30C30.6904 22.9168 31.25 23.4765 31.25 24.1668C31.25 24.8572 30.6904 25.4168 30 25.4168H23.3333C22.643 25.4168 22.0833 24.8572 22.0833 24.1668Z" fill="white"/>
</svg>
