<svg width="24" height="20" viewBox="0 0 24 20" fill="none" xmlns="http://www.w3.org/2000/svg">
<path d="M1.91667 9.25022H20.2037L13.2013 2.58056C12.8346 2.23131 12.8204 1.65106 13.1697 1.28439C13.5185 0.918182 14.0987 0.903515 14.4658 1.25277L22.4628 8.87027C22.8089 9.21677 23 9.67693 23 10.1669C23 10.6564 22.8089 11.117 22.4468 11.4786L14.4654 19.0806C14.288 19.2497 14.0607 19.3336 13.8333 19.3336C13.5913 19.3336 13.3493 19.2382 13.1692 19.0489C12.82 18.6823 12.8342 18.1025 13.2008 17.7532L20.2326 11.0836H1.91667C1.41067 11.0836 1 10.6729 1 10.1669C1 9.66089 1.41067 9.25022 1.91667 9.25022Z" fill="white" stroke="white"/>
</svg>
