<svg width="24" height="20" viewBox="0 0 24 20" fill="none" xmlns="http://www.w3.org/2000/svg">
<path d="M22.0833 10.7498H3.79629L10.7987 17.4194C11.1654 17.7687 11.1796 18.3489 10.8303 18.7156C10.4815 19.0818 9.90129 19.0965 9.53417 18.7472L1.53717 11.1297C1.19112 10.7832 1 10.3231 1 9.83311C1 9.34361 1.19112 8.88298 1.55321 8.52136L9.53463 0.919441C9.712 0.750317 9.93933 0.666443 10.1667 0.666443C10.4087 0.666443 10.6507 0.761776 10.8308 0.951067C11.18 1.31773 11.1658 1.89753 10.7992 2.24678L3.76742 8.91644H22.0833C22.5893 8.91644 23 9.32711 23 9.83311C23 10.3391 22.5893 10.7498 22.0833 10.7498Z" fill="#AFAFAF" stroke="#AFAFAF"/>
</svg>
