<svg width="102" height="26" viewBox="0 0 102 26" fill="none" xmlns="http://www.w3.org/2000/svg">
<path d="M32.008 10H37.368V11.664H33.736V18H32.008V10ZM38.1418 15.792C38.4724 15.792 38.7551 15.9093 38.9898 16.144C39.2244 16.3787 39.3418 16.6613 39.3418 16.992C39.3418 17.3227 39.2244 17.6053 38.9898 17.84C38.7551 18.0747 38.4724 18.192 38.1418 18.192C37.8111 18.192 37.5284 18.0747 37.2938 17.84C37.0591 17.6053 36.9418 17.3227 36.9418 16.992C36.9418 16.6613 37.0538 16.3787 37.2778 16.144C37.5124 15.9093 37.8004 15.792 38.1418 15.792ZM54.0439 6.8H56.0119V18H54.1719V10.016L50.7639 15.648H50.5399L47.1319 10V18H45.2919V6.8H47.2759L50.6519 12.4L54.0439 6.8ZM64.901 16.992C64.0903 17.8027 63.093 18.208 61.909 18.208C60.725 18.208 59.7277 17.8027 58.917 16.992C58.0957 16.1707 57.685 15.1733 57.685 14C57.685 12.8267 58.0957 11.8293 58.917 11.008C59.7277 10.1973 60.725 9.792 61.909 9.792C63.093 9.792 64.0903 10.1973 64.901 11.008C65.7223 11.8293 66.133 12.8267 66.133 14C66.133 15.1733 65.7223 16.1707 64.901 16.992ZM59.413 14C59.413 14.7253 59.653 15.328 60.133 15.808C60.613 16.288 61.205 16.528 61.909 16.528C62.613 16.528 63.205 16.288 63.685 15.808C64.165 15.328 64.405 14.7253 64.405 14C64.405 13.2747 64.165 12.672 63.685 12.192C63.205 11.712 62.613 11.472 61.909 11.472C61.205 11.472 60.613 11.712 60.133 12.192C59.653 12.672 59.413 13.2747 59.413 14ZM71.4715 18.208C70.2662 18.208 69.2582 17.8027 68.4475 16.992C67.6475 16.1707 67.2475 15.1733 67.2475 14C67.2475 12.8053 67.6475 11.808 68.4475 11.008C69.2582 10.1973 70.2662 9.792 71.4715 9.792C72.2502 9.792 72.9595 9.97867 73.5995 10.352C74.2395 10.7253 74.7195 11.2267 75.0395 11.856L73.5515 12.72C73.3702 12.336 73.0928 12.0373 72.7195 11.824C72.3568 11.6 71.9355 11.488 71.4555 11.488C70.7515 11.488 70.1595 11.728 69.6795 12.208C69.2102 12.6987 68.9755 13.296 68.9755 14C68.9755 14.704 69.2102 15.3013 69.6795 15.792C70.1595 16.272 70.7515 16.512 71.4555 16.512C71.9248 16.512 72.3462 16.4053 72.7195 16.192C73.1035 15.968 73.3915 15.664 73.5835 15.28L75.0715 16.128C74.7302 16.768 74.2342 17.2747 73.5835 17.648C72.9435 18.0213 72.2395 18.208 71.4715 18.208ZM79.7914 13.92L83.4394 18H81.3754L78.0954 14.304V18H76.3674V10H78.0954V13.536L81.1994 10H83.3114L79.7914 13.92ZM90.1378 13.888C90.9271 14.2613 91.3218 14.8747 91.3218 15.728C91.3218 16.4107 91.0871 16.96 90.6178 17.376C90.1591 17.792 89.5191 18 88.6978 18H84.6018V10H88.3778C89.1884 10 89.8231 10.2027 90.2818 10.608C90.7404 11.0133 90.9698 11.5467 90.9698 12.208C90.9698 12.9653 90.6924 13.5253 90.1378 13.888ZM88.2498 11.472H86.2498V13.248H88.2498C88.9538 13.248 89.3058 12.9493 89.3058 12.352C89.3058 11.7653 88.9538 11.472 88.2498 11.472ZM86.2498 16.496H88.5378C89.2631 16.496 89.6258 16.1813 89.6258 15.552C89.6258 15.2747 89.5298 15.0613 89.3378 14.912C89.1458 14.752 88.8791 14.672 88.5378 14.672H86.2498V16.496ZM99.0628 11.136V10H100.791V18H99.0628V16.848C98.4121 17.7547 97.4788 18.208 96.2628 18.208C95.1641 18.208 94.2254 17.8027 93.4468 16.992C92.6681 16.1813 92.2788 15.184 92.2788 14C92.2788 12.816 92.6681 11.8187 93.4468 11.008C94.2254 10.1973 95.1641 9.792 96.2628 9.792C97.4788 9.792 98.4121 10.24 99.0628 11.136ZM94.7268 15.84C95.2068 16.32 95.8094 16.56 96.5348 16.56C97.2601 16.56 97.8628 16.32 98.3428 15.84C98.8228 15.3493 99.0628 14.736 99.0628 14C99.0628 13.264 98.8228 12.656 98.3428 12.176C97.8628 11.6853 97.2601 11.44 96.5348 11.44C95.8094 11.44 95.2068 11.6853 94.7268 12.176C94.2468 12.656 94.0068 13.264 94.0068 14C94.0068 14.7253 94.2468 15.3387 94.7268 15.84Z" fill="#212531"/>
<path d="M9.99997 2C5.58883 2 2 5.7969 2 10.4638C2 14.8751 8.64015 22.4697 9.3972 23.3221L9.99997 24L10.6027 23.3221C11.36 22.4704 18 14.8751 18 10.4638C18.0003 5.7969 14.4115 2 9.99997 2Z" stroke="#FD9514" stroke-width="2.5"/>
<circle cx="10" cy="10" r="2" fill="#FD9514"/>
</svg>
