<svg width="40" height="40" viewBox="0 0 40 40" fill="none" xmlns="http://www.w3.org/2000/svg">
<path fill-rule="evenodd" clip-rule="evenodd" d="M6.66536 18.333C6.66536 11.8897 11.8887 6.66634 18.332 6.66634C24.7754 6.66634 29.9987 11.8897 29.9987 18.333C29.9987 24.7763 24.7754 29.9997 18.332 29.9997C11.8887 29.9997 6.66536 24.7763 6.66536 18.333ZM18.332 3.33301C10.0478 3.33301 3.33203 10.0487 3.33203 18.333C3.33203 26.6173 10.0478 33.333 18.332 33.333C21.8737 33.333 25.1287 32.1055 27.6949 30.0528L33.8202 36.1782C34.471 36.829 35.5264 36.829 36.1772 36.1782C36.828 35.5273 36.828 34.472 36.1772 33.8212L30.0519 27.6958C32.1045 25.1297 33.332 21.8747 33.332 18.333C33.332 10.0487 26.6164 3.33301 18.332 3.33301Z" fill="white"/>
</svg>
