<svg width="390" height="200" viewBox="0 0 390 200" fill="none" xmlns="http://www.w3.org/2000/svg">
<path fill-rule="evenodd" clip-rule="evenodd" d="M10 2.97145e-05L5 3.05176e-05H0V5.00003C7.62939e-06 56.7172 20.5446 106.316 57.1142 142.886C93.6838 179.455 143.283 200 195 200C246.717 200 296.316 179.455 332.886 142.886C369.455 106.316 390 56.7172 390 5V0H385H380V11H379.903C378.383 57.8875 359.092 102.537 325.815 135.815C291.121 170.509 244.065 190 195 190C145.935 190 98.8795 170.509 64.1853 135.815C30.9078 102.537 11.6172 57.8875 10.0972 11H10V2.97145e-05Z" fill="#FD9514"/>
</svg>
