<svg width="200" height="200" viewBox="0 0 200 200" fill="none" xmlns="http://www.w3.org/2000/svg">
<path fill-rule="evenodd" clip-rule="evenodd" d="M4.01546e-07 190L0 195V200H5C30.6078 200 55.9648 194.956 79.6233 185.157C103.282 175.357 124.778 160.993 142.886 142.886C160.993 124.778 175.357 103.282 185.157 79.6233C194.956 55.9648 200 30.6078 200 5V0H195H190V11H189.903C189.181 33.2481 184.449 55.2007 175.918 75.7964C166.621 98.2417 152.994 118.636 135.815 135.815C118.636 152.994 98.2417 166.621 75.7964 175.918C55.2007 184.449 33.2481 189.181 11 189.903V190H4.01546e-07Z" fill="#FD9514"/>
</svg>
