<svg width="200" height="390" viewBox="0 0 200 390" fill="none" xmlns="http://www.w3.org/2000/svg">
<path fill-rule="evenodd" clip-rule="evenodd" d="M5 0H0V5V10H11V10.0972C57.8875 11.6172 102.537 30.9078 135.815 64.1852C170.509 98.8795 190 145.935 190 195C190 244.065 170.509 291.121 135.815 325.815C102.537 359.092 57.8875 378.383 11 379.903V380H2.97145e-05L3.05176e-05 385V390H5.00003C56.7172 390 106.316 369.455 142.886 332.886C179.455 296.316 200 246.717 200 195C200 143.283 179.455 93.6838 142.886 57.1142C106.316 20.5446 56.7172 0 5 0Z" fill="#FD9514"/>
</svg>
