<svg width="200" height="200" viewBox="0 0 200 200" fill="none" xmlns="http://www.w3.org/2000/svg">
<path fill-rule="evenodd" clip-rule="evenodd" d="M0 0H5C30.6078 0 55.9648 5.04383 79.6233 14.8435C103.282 24.6432 124.778 39.0068 142.886 57.1142C160.993 75.2216 175.357 96.7183 185.157 120.377C194.956 144.035 200 169.392 200 195V200H195H190V189H189.903C189.181 166.752 184.449 144.799 175.918 124.204C166.621 101.758 152.994 81.3641 135.815 64.1853C118.636 47.0064 98.2417 33.3794 75.7964 24.0823C55.2007 15.5513 33.2481 10.8192 11 10.0973V10H0V5V0Z" fill="#FD9514"/>
</svg>
