<svg width="25" height="24" viewBox="0 0 25 24" fill="none" xmlns="http://www.w3.org/2000/svg">
<path d="M23.1999 5.55C19.5999 -3.57628e-07 12.2499 -1.65 6.54991 1.8C0.999913 5.25 -0.800086 12.75 2.79991 18.3L3.09991 18.75L1.89991 23.25L6.39991 22.05L6.84991 22.35C8.79991 23.4 10.8999 24 12.9999 24C15.2499 24 17.4999 23.4 19.4499 22.2C24.9999 18.6 26.6499 11.25 23.1999 5.55ZM20.0499 17.1C19.4499 18 18.6999 18.6 17.6499 18.75C17.0499 18.75 16.2999 19.05 13.2999 17.85C10.7499 16.65 8.64991 14.7 7.14991 12.45C6.24991 11.4 5.79991 10.05 5.64991 8.7C5.64991 7.5 6.09991 6.45 6.84991 5.7C7.14991 5.4 7.44991 5.25 7.74991 5.25H8.49991C8.79991 5.25 9.09991 5.25 9.24991 5.85C9.54991 6.6 10.2999 8.4 10.2999 8.55C10.4499 8.7 10.4499 9 10.2999 9.15C10.4499 9.45 10.2999 9.75 10.1499 9.9C9.99991 10.05 9.84991 10.35 9.69991 10.5C9.39991 10.65 9.24991 10.95 9.39991 11.25C9.99991 12.15 10.7499 13.05 11.4999 13.8C12.3999 14.55 13.2999 15.15 14.3499 15.6C14.6499 15.75 14.9499 15.75 15.0999 15.45C15.2499 15.15 15.9999 14.4 16.2999 14.1C16.5999 13.8 16.7499 13.8 17.0499 13.95L19.4499 15.15C19.7499 15.3 20.0499 15.45 20.1999 15.6C20.3499 16.05 20.3499 16.65 20.0499 17.1Z" fill="#43D82B"/>
</svg>
