<svg width="30" height="19" viewBox="0 0 30 19" fill="none" xmlns="http://www.w3.org/2000/svg">
<path fill-rule="evenodd" clip-rule="evenodd" d="M14.5727 18.7237H16.3012C16.3012 18.7237 16.9494 18.7237 17.1655 18.2496C17.3816 18.0126 17.3816 17.3016 17.3816 17.3016C17.3816 17.3016 17.3816 14.6945 18.4619 14.2205C19.5423 13.7465 21.0547 16.8276 22.5672 18.0126C23.6476 18.9607 24.5118 18.7237 24.5118 18.7237H28.6172C28.6172 18.7237 30.7779 18.4867 29.6975 16.8276C29.6975 16.5906 29.0493 15.4055 26.6725 13.0355C24.0797 10.4284 24.5118 10.9024 27.5368 6.39923C29.4814 3.79214 30.1296 2.13308 29.9136 1.42205C29.6975 0.711025 28.4011 0.948034 28.4011 0.948034H23.8636C23.8636 0.948034 23.4315 0.948034 23.2154 0.948034C22.9994 1.18504 22.7833 1.42205 22.7833 1.42205C22.7833 1.42205 22.1351 3.55513 21.0547 5.21419C19.3262 9.24333 18.4619 9.24333 18.0298 9.00632C17.3816 8.5323 17.5976 6.87324 17.5976 5.6882C17.5976 2.13308 18.0298 0.474017 16.5173 0.237008C16.0851 0 15.653 0 14.3566 0C12.8441 0 11.3316 0 10.6834 0.474017C10.0352 0.711025 9.81914 1.42205 10.0352 1.42205C10.2513 1.42205 11.1156 1.65906 11.3316 2.13308C11.7638 2.8441 11.7638 4.26615 11.7638 4.26615C11.7638 4.26615 11.9798 8.5323 11.1156 9.00632C10.4674 9.48034 9.60307 8.76931 7.87452 5.45119C7.01024 3.55513 6.36204 1.65906 6.36204 1.65906C6.36204 1.65906 6.14597 1.42205 5.9299 1.18504C5.49776 0.948034 5.28169 0.711025 5.28169 0.711025H0.960307C0.960307 0.711025 0.3121 0.711025 0.0960307 0.948034C-0.120038 1.18504 0.0960307 1.89607 0.0960307 1.89607C0.0960307 1.89607 3.55314 10.4284 7.22631 14.9315C10.6834 18.9607 14.5727 18.7237 14.5727 18.7237Z" fill="#4191DB"/>
</svg>
